<svg width="700" height="643" viewBox="0 0 700 643" fill="none" xmlns="http://www.w3.org/2000/svg">
<g clip-path="url(#clip0_390_1839)">
<path d="M379.66 452.296L340.678 641.642H344.407L396.574 452.345" fill="#263648"/>
<path d="M379.66 452.296L340.678 641.642H344.407L396.574 452.345" fill="white" fill-opacity="0.2"/>
<path d="M517.932 447.827L557.688 641.642H554.077L501.958 452.262" fill="#263648"/>
<path d="M517.932 447.827L557.688 641.642H554.077L501.958 452.262" fill="white" fill-opacity="0.2"/>
<path d="M463.78 452.296L502.768 641.642H499.039L446.873 452.345" fill="#263648"/>
<path d="M463.78 452.296L502.768 641.642H499.039L446.873 452.345" fill="white" fill-opacity="0.2"/>
<path d="M560.504 359.335L536.983 429.205C534.593 436.299 530.035 442.464 523.953 446.829C517.871 451.194 510.572 453.54 503.086 453.534H369.899C362.413 453.54 355.114 451.194 349.032 446.829C342.95 442.464 338.392 436.299 336.002 429.205L316.632 371.704C315.85 369.378 315.632 366.899 315.997 364.472C316.362 362.045 317.299 359.739 318.731 357.746C320.164 355.753 322.049 354.129 324.233 353.009C326.417 351.889 328.836 351.304 331.291 351.304H346.206C349.604 351.304 352.888 350.076 355.453 347.846C358.019 345.617 359.692 342.536 360.166 339.17L368.854 277.492C369.855 270.368 373.396 263.847 378.826 259.128C384.255 254.409 391.207 251.811 398.4 251.813H518.374C522.644 251.811 526.863 252.725 530.749 254.494C534.634 256.263 538.094 258.846 540.896 262.067C543.697 265.288 545.775 269.073 546.988 273.166C548.201 277.26 548.521 281.565 547.927 285.793L540.47 339.011C540.076 341.849 540.825 344.728 542.553 347.014C544.281 349.3 546.846 350.806 549.684 351.2C550.175 351.269 550.669 351.304 551.165 351.304H554.762C555.557 351.301 556.344 351.455 557.08 351.757C557.815 352.058 558.484 352.502 559.048 353.062C559.612 353.622 560.06 354.288 560.367 355.021C560.674 355.755 560.833 356.541 560.836 357.336C560.836 358.016 560.724 358.692 560.504 359.335Z" fill="#263648"/>
<path d="M560.504 359.335L536.983 429.205C534.593 436.299 530.035 442.464 523.953 446.829C517.871 451.194 510.572 453.54 503.086 453.534H369.899C362.413 453.54 355.114 451.194 349.032 446.829C342.95 442.464 338.392 436.299 336.002 429.205L316.632 371.704C315.85 369.378 315.632 366.899 315.997 364.472C316.362 362.045 317.299 359.739 318.731 357.746C320.164 355.753 322.049 354.129 324.233 353.009C326.417 351.889 328.836 351.304 331.291 351.304H346.206C349.604 351.304 352.888 350.076 355.453 347.846C358.019 345.617 359.692 342.536 360.166 339.17L368.854 277.492C369.855 270.368 373.396 263.847 378.826 259.128C384.255 254.409 391.207 251.811 398.4 251.813H518.374C522.644 251.811 526.863 252.725 530.749 254.494C534.634 256.263 538.094 258.846 540.896 262.067C543.697 265.288 545.775 269.073 546.988 273.166C548.201 277.26 548.521 281.565 547.927 285.793L540.47 339.011C540.076 341.849 540.825 344.728 542.553 347.014C544.281 349.3 546.846 350.806 549.684 351.2C550.175 351.269 550.669 351.304 551.165 351.304H554.762C555.557 351.301 556.344 351.455 557.08 351.757C557.815 352.058 558.484 352.502 559.048 353.062C559.612 353.622 560.06 354.288 560.367 355.021C560.674 355.755 560.833 356.541 560.836 357.336C560.836 358.016 560.724 358.692 560.504 359.335Z" fill="white" fill-opacity="0.2"/>
<path d="M550.459 350.557H540.601C534.154 350.506 527.855 352.487 522.597 356.218C517.34 359.95 513.391 365.242 511.311 371.345L494.446 418.219C492.287 424.64 488.169 430.221 482.672 434.177C477.174 438.134 470.574 440.266 463.8 440.273H341.059" fill="#263648"/>
<path d="M550.459 350.557H540.601C534.154 350.506 527.855 352.487 522.597 356.218C517.34 359.95 513.391 365.242 511.311 371.345L494.446 418.219C492.287 424.64 488.169 430.221 482.672 434.177C477.174 438.134 470.574 440.266 463.8 440.273H341.059" fill="white" fill-opacity="0.15"/>
<path d="M550.459 350.557H540.601C534.154 350.506 527.855 352.487 522.597 356.218C517.34 359.95 513.391 365.242 511.311 371.345L494.446 418.219C492.287 424.64 488.169 430.221 482.672 434.177C477.174 438.134 470.574 440.266 463.8 440.273H341.059" stroke="white" stroke-width="3" stroke-miterlimit="10"/>
<path d="M700 323.723H0V338.727H700V323.723Z" fill="#263648"/>
<path d="M700 323.723H0V338.727H700V323.723Z" fill="white" fill-opacity="0.05"/>
<path d="M680.609 590.983H593.446V601.505H680.609V590.983Z" fill="#263648"/>
<path d="M680.609 590.983H593.446V601.505H680.609V590.983Z" fill="white" fill-opacity="0.05"/>
<path d="M668.483 339.226H605.441V353.172H668.483V339.226Z" fill="#263648"/>
<path d="M668.483 339.226H605.441V353.172H668.483V339.226Z" fill="white" fill-opacity="0.05"/>
<path d="M692.889 642.88C691.39 642.882 689.937 642.357 688.786 641.397C687.634 640.438 686.856 639.104 686.587 637.63L638.411 375.558C638.346 375.223 638.165 374.921 637.902 374.704C637.638 374.487 637.307 374.368 636.966 374.368C636.624 374.368 636.293 374.487 636.03 374.704C635.766 374.921 635.586 375.223 635.52 375.558L587.345 637.63C587.074 639.104 586.296 640.436 585.144 641.396C583.993 642.355 582.541 642.88 581.043 642.88C579.344 642.88 577.714 642.205 576.513 641.004C575.312 639.803 574.637 638.173 574.637 636.474C574.637 636.085 574.672 635.696 574.741 635.312L626.693 352.681H647.238L699.191 635.312C699.361 636.236 699.326 637.187 699.088 638.096C698.85 639.005 698.415 639.851 697.814 640.573C697.212 641.296 696.459 641.877 695.608 642.275C694.757 642.674 693.829 642.88 692.889 642.88Z" fill="#263648"/>
<path d="M692.889 642.88C691.39 642.882 689.937 642.357 688.786 641.397C687.634 640.438 686.856 639.104 686.587 637.63L638.411 375.558C638.346 375.223 638.165 374.921 637.902 374.704C637.638 374.487 637.307 374.368 636.966 374.368C636.624 374.368 636.293 374.487 636.03 374.704C635.766 374.921 635.586 375.223 635.52 375.558L587.345 637.63C587.074 639.104 586.296 640.436 585.144 641.396C583.993 642.355 582.541 642.88 581.043 642.88C579.344 642.88 577.714 642.205 576.513 641.004C575.312 639.803 574.637 638.173 574.637 636.474C574.637 636.085 574.672 635.696 574.741 635.312L626.693 352.681H647.238L699.191 635.312C699.361 636.236 699.326 637.187 699.088 638.096C698.85 639.005 698.415 639.851 697.814 640.573C697.212 641.296 696.459 641.877 695.608 642.275C694.757 642.674 693.829 642.88 692.889 642.88Z" fill="white" fill-opacity="0.05"/>
<path d="M106.685 590.983H19.5219V601.505H106.685V590.983Z" fill="#263648"/>
<path d="M106.685 590.983H19.5219V601.505H106.685V590.983Z" fill="white" fill-opacity="0.05"/>
<path d="M94.5587 339.226H31.5172V353.172H94.5587V339.226Z" fill="#263648"/>
<path d="M94.5587 339.226H31.5172V353.172H94.5587V339.226Z" fill="white" fill-opacity="0.05"/>
<path d="M118.965 642.88C117.466 642.88 116.014 642.355 114.863 641.396C113.711 640.436 112.933 639.104 112.662 637.63L64.4872 375.565C64.4214 375.229 64.2412 374.928 63.9775 374.711C63.7138 374.494 63.3829 374.375 63.0414 374.375C62.7 374.375 62.3691 374.494 62.1054 374.711C61.8417 374.928 61.6615 375.229 61.5956 375.565L13.4204 637.63C13.1514 639.104 12.3731 640.438 11.2214 641.397C10.0696 642.357 8.61748 642.882 7.11837 642.88C5.41943 642.88 3.79009 642.205 2.58876 641.004C1.38743 639.803 0.712524 638.173 0.712524 636.474C0.712732 636.085 0.747463 635.696 0.816297 635.312L52.7686 352.681H73.3143L125.301 635.312C125.454 636.14 125.442 636.989 125.267 637.813C125.091 638.636 124.755 639.416 124.278 640.109C123.801 640.803 123.191 641.395 122.485 641.853C121.779 642.31 120.989 642.624 120.161 642.776C119.766 642.846 119.366 642.88 118.965 642.88Z" fill="#263648"/>
<path d="M118.965 642.88C117.466 642.88 116.014 642.355 114.863 641.396C113.711 640.436 112.933 639.104 112.662 637.63L64.4872 375.565C64.4214 375.229 64.2412 374.928 63.9775 374.711C63.7138 374.494 63.3829 374.375 63.0414 374.375C62.7 374.375 62.3691 374.494 62.1054 374.711C61.8417 374.928 61.6615 375.229 61.5956 375.565L13.4204 637.63C13.1514 639.104 12.3731 640.438 11.2214 641.397C10.0696 642.357 8.61748 642.882 7.11837 642.88C5.41943 642.88 3.79009 642.205 2.58876 641.004C1.38743 639.803 0.712524 638.173 0.712524 636.474C0.712732 636.085 0.747463 635.696 0.816297 635.312L52.7686 352.681H73.3143L125.301 635.312C125.454 636.14 125.442 636.989 125.267 637.813C125.091 638.636 124.755 639.416 124.278 640.109C123.801 640.803 123.191 641.395 122.485 641.853C121.779 642.31 120.989 642.624 120.161 642.776C119.766 642.846 119.366 642.88 118.965 642.88Z" fill="white" fill-opacity="0.05"/>
<g filter="url(#filter0_d_390_1839)">
<path d="M288.864 225.232H176.375C174.333 225.232 172.374 226.043 170.93 227.487C169.487 228.931 168.675 230.889 168.675 232.931C168.671 233.845 168.833 234.752 169.153 235.608L197.515 312.679H329.236L299.912 232.938C299.082 230.677 297.577 228.725 295.601 227.347C293.625 225.968 291.273 225.23 288.864 225.232Z" fill="#313D4A"/>
<path d="M286.658 229.14H176.963C175.751 229.142 174.557 229.436 173.483 229.998C172.409 230.56 171.487 231.374 170.796 232.369C170.104 233.364 169.663 234.512 169.511 235.715C169.359 236.917 169.499 238.138 169.921 239.275L197.592 314.422H326.02L297.422 236.653C296.611 234.45 295.144 232.549 293.22 231.206C291.295 229.863 289.005 229.142 286.658 229.14Z" fill="#263648"/>
<path d="M286.658 229.14H176.963C175.751 229.142 174.557 229.436 173.483 229.998C172.409 230.56 171.487 231.374 170.796 232.369C170.104 233.364 169.663 234.512 169.511 235.715C169.359 236.917 169.499 238.138 169.921 239.275L197.592 314.422H326.02L297.422 236.653C296.611 234.45 295.144 232.549 293.22 231.206C291.295 229.863 289.005 229.142 286.658 229.14Z" fill="white" fill-opacity="0.3"/>
<path d="M197.246 312.658H413.031C414.478 312.657 415.911 312.942 417.249 313.495C418.586 314.048 419.801 314.858 420.825 315.881C421.849 316.904 422.662 318.118 423.216 319.455C423.771 320.791 424.057 322.224 424.058 323.671V323.969H208.314C206.866 323.974 205.431 323.695 204.091 323.145C202.751 322.596 201.533 321.789 200.505 320.769C199.477 319.748 198.66 318.536 198.101 317.2C197.542 315.864 197.251 314.432 197.246 312.984V312.658Z" fill="#152331"/>
<path d="M197.246 312.658H413.031C414.478 312.657 415.911 312.942 417.249 313.495C418.586 314.048 419.801 314.858 420.825 315.881C421.849 316.904 422.662 318.118 423.216 319.455C423.771 320.791 424.057 322.224 424.058 323.671V323.969H208.314C206.866 323.974 205.431 323.695 204.091 323.145C202.751 322.596 201.533 321.789 200.505 320.769C199.477 319.748 198.66 318.536 198.101 317.2C197.542 315.864 197.251 314.432 197.246 312.984V312.658Z" fill="white" fill-opacity="0.12"/>
<path d="M254.249 280.774C258.278 276.299 257.067 268.641 251.545 263.668C246.022 258.696 238.28 258.293 234.251 262.767C230.222 267.242 231.432 274.9 236.954 279.872C242.477 284.845 250.22 285.248 254.249 280.774Z" fill="#152331"/>
<path d="M254.249 280.774C258.278 276.299 257.067 268.641 251.545 263.668C246.022 258.696 238.28 258.293 234.251 262.767C230.222 267.242 231.432 274.9 236.954 279.872C242.477 284.845 250.22 285.248 254.249 280.774Z" fill="white" fill-opacity="0.74"/>
<path d="M357.087 316.705H347.894V320.005H357.087V316.705Z" fill="white"/>
<path d="M374.651 316.705H365.458V320.005H374.651V316.705Z" fill="#1A2128"/>
</g>
<path d="M594.504 291.998H590.942V284.797H558.49V317.566C558.49 318.375 558.648 319.176 558.957 319.923C559.266 320.671 559.72 321.35 560.292 321.922C560.864 322.494 561.543 322.947 562.29 323.256C563.037 323.565 563.838 323.724 564.647 323.723H584.785C585.592 323.724 586.392 323.566 587.139 323.257C587.885 322.949 588.564 322.497 589.135 321.927C589.707 321.356 590.161 320.679 590.471 319.933C590.781 319.187 590.941 318.388 590.942 317.58V306.401H594.504C596.414 306.401 598.246 305.642 599.596 304.292C600.947 302.941 601.706 301.109 601.706 299.2C601.706 297.29 600.947 295.458 599.596 294.107C598.246 292.757 596.414 291.998 594.504 291.998ZM597.029 301.877C596.678 302.229 596.261 302.509 595.802 302.7C595.342 302.891 594.85 302.99 594.352 302.99H590.942V295.381H594.324C595.075 295.379 595.809 295.6 596.433 296.016C597.057 296.432 597.544 297.025 597.831 297.718C598.118 298.411 598.192 299.174 598.044 299.909C597.897 300.645 597.534 301.32 597.002 301.849L597.029 301.877Z" fill="white" stroke="#57AA6F" stroke-width="3" stroke-miterlimit="10"/>
<path d="M577.189 281.739C575.48 279.989 566.536 274.13 568.535 265.697C570.534 257.264 583.201 259.09 582.813 249.675C582.488 241.685 575.48 244.881 573.952 247.794C573.952 247.794 574.879 237.251 584.508 240.772C600.765 246.721 581.886 263.601 576.497 268.277C571.537 272.545 577.189 281.739 577.189 281.739Z" fill="#515E6D"/>
<path d="M588.555 259.125C588.555 259.125 586.48 266.236 578.033 269.737C578.033 269.737 591.004 269.737 588.555 259.125Z" fill="#515E6D"/>
<path d="M682.069 323.723C682.069 323.723 706.392 190.473 584.571 171.865" stroke="#57AA6F" stroke-width="3" stroke-miterlimit="10"/>
<path d="M682.547 322.983H617.693C622.224 312.488 635.029 304.927 650.116 304.927C665.204 304.927 678.029 312.488 682.547 322.983Z" fill="#57AA6F"/>
<path d="M682.547 322.983H674.384C670.088 313.028 657.933 305.847 643.613 305.847C642.61 305.847 641.614 305.882 640.625 305.958C643.741 305.267 646.924 304.921 650.116 304.927C665.211 304.927 678.029 312.489 682.547 322.983Z" fill="#488C5C"/>
<path d="M585.608 173.103C585.027 175.738 582.952 177.8 580.005 179.052C576.622 180.498 572.105 180.871 567.394 179.834C562.683 178.796 558.747 176.541 556.284 173.808C554.139 171.429 553.129 168.689 553.71 166.054C554.963 160.388 563.119 157.379 571.925 159.323C580.731 161.267 586.86 167.444 585.608 173.103Z" fill="#57AA6F"/>
<path d="M585.608 173.103C585.062 175.579 583.194 177.544 580.53 178.817C581.789 177.83 582.674 176.444 583.042 174.888C584.211 169.609 578.497 163.854 570.278 162.034C562.53 160.326 555.322 162.726 553.551 167.43C553.556 166.965 553.609 166.501 553.71 166.047C554.962 160.381 563.119 157.372 571.925 159.316C580.731 161.26 586.86 167.444 585.608 173.103Z" fill="#57AA6F"/>
<path d="M578.22 177.738C574.848 178.935 571.207 179.16 567.712 178.388C564.218 177.617 561.011 175.879 558.456 173.373C557.322 170.875 564.053 170.011 569.31 171.173C574.568 172.335 580.392 176.43 578.22 177.738Z" fill="#488C5C"/>
<path d="M51.046 116.751H281.642V137.871L51.0045 118.376C50.3888 118.321 50.4303 116.751 51.046 116.751Z" fill="#FFF4DE"/>
<path d="M256.766 12.3344H247.067C245.1 12.3344 243.505 13.9294 243.505 15.897V95.3473C243.505 97.3149 245.1 98.91 247.067 98.91H256.766C258.734 98.91 260.329 97.3149 260.329 95.3473V15.897C260.329 13.9294 258.734 12.3344 256.766 12.3344Z" fill="white" stroke="#57AA6F" stroke-width="3" stroke-miterlimit="10"/>
<path d="M238.987 19.6602H227.407C225.485 19.6602 223.927 21.2181 223.927 23.1398V97.1459C223.927 99.0676 225.485 100.626 227.407 100.626H238.987C240.909 100.626 242.467 99.0676 242.467 97.1459V23.1398C242.467 21.2181 240.909 19.6602 238.987 19.6602Z" fill="#57AA6F"/>
<path d="M220.683 0H217.556C215.764 0 214.312 1.45258 214.312 3.24442V97.3811C214.312 99.173 215.764 100.626 217.556 100.626H220.683C222.475 100.626 223.927 99.173 223.927 97.3811V3.24442C223.927 1.45258 222.475 0 220.683 0Z" fill="#D6EAF2"/>
<path d="M210.071 25.5196H201.742C199.778 25.5196 198.187 27.1115 198.187 29.0753V96.0391C198.187 98.0029 199.778 99.5948 201.742 99.5948H210.071C212.035 99.5948 213.627 98.0029 213.627 96.0391V29.0753C213.627 27.1115 212.035 25.5196 210.071 25.5196Z" fill="white" stroke="#57AA6F" stroke-width="3" stroke-miterlimit="10"/>
<path d="M169.471 100.612H155.988L189.705 10.3005C189.832 9.94862 190.064 9.64424 190.37 9.42886C190.675 9.21347 191.04 9.09755 191.414 9.09686H200.974C201.218 9.09867 201.459 9.14841 201.683 9.24326C201.907 9.33811 202.11 9.4762 202.281 9.64964C202.452 9.82308 202.587 10.0285 202.679 10.2541C202.77 10.4797 202.816 10.7212 202.815 10.9647C202.811 11.187 202.769 11.4071 202.69 11.6149L169.471 100.612Z" fill="#57AA6F"/>
<path d="M280.978 100.626H51.551V115.762H280.978V100.626Z" fill="white" stroke="#57AA6F" stroke-width="3" stroke-miterlimit="10"/>
<path d="M74.7324 67.0606H132.641V73.418C132.637 80.6303 129.77 87.546 124.67 92.6452C119.569 97.7444 112.653 100.61 105.44 100.612H101.94C94.7241 100.612 87.8037 97.7452 82.7013 92.6428C77.5989 87.5404 74.7324 80.6201 74.7324 73.4042V67.0606Z" fill="#152331"/>
<path d="M74.7324 67.0606H132.641V73.418C132.637 80.6303 129.77 87.546 124.67 92.6452C119.569 97.7444 112.653 100.61 105.44 100.612H101.94C94.7241 100.612 87.8037 97.7452 82.7013 92.6428C77.5989 87.5404 74.7324 80.6201 74.7324 73.4042V67.0606Z" fill="white" fill-opacity="0.2"/>
<path d="M126.837 67.0606H83.9123C83.9123 67.0606 71.3704 77.2989 64.2036 68.9077C59.0153 62.827 83.8431 62.5572 83.8431 62.5572L84.5902 62.2943C84.5902 62.2943 73.9438 39.9431 84.0022 36.2075C90.9545 33.6272 92.6425 52.5679 92.9953 58.7247C96.6617 57.189 103.801 54.9822 104.41 60.8001C104.41 60.8001 105.205 36.8716 115.236 39.1614C123.572 41.0568 111.203 63.5464 111.203 63.5464L112.074 64.0791C112.074 64.0791 134.986 47.3451 140.596 51.2121C144.865 54.1659 126.837 67.0606 126.837 67.0606Z" fill="#2E5E3C"/>
<path d="M90.5049 67.0606C90.5049 67.0606 90.9545 46.4388 98.7163 46.9991C106.478 47.5595 95.6586 67.0606 95.6586 67.0606H90.5049Z" fill="#66C080" fill-opacity="0.9"/>
<path d="M90.5048 67.0606C90.5048 67.0606 82.7154 47.601 72.159 52.5818C61.8515 57.4242 84.0367 67.0606 84.0367 67.0606H90.5048Z" fill="#66C080" fill-opacity="0.9"/>
<path d="M106.52 67.0606C106.52 67.0606 113.541 49.5241 124.609 51.1913C135.678 52.8585 110.912 67.0606 110.912 67.0606H106.52Z" fill="#66C080" fill-opacity="0.9"/>
<path d="M117.927 67.0606C117.927 67.0606 139.621 56.1375 143.523 62.7232C147.424 69.3089 117.927 67.0606 117.927 67.0606Z" fill="#66C080" fill-opacity="0.9"/>
<path d="M191.601 560.22C191.601 560.22 193.303 444.285 247.399 375.565C247.399 375.565 219.5 414.636 210.528 560.22H191.601Z" fill="#57AA6F"/>
<path d="M191.601 560.22C191.601 560.22 193.303 444.285 247.399 375.565C247.399 375.565 219.5 414.636 210.528 560.22H191.601Z" fill="black" fill-opacity="0.2"/>
<path d="M202.669 560.22C202.669 560.22 214.817 436.205 149.866 389.808C149.866 389.808 203.07 438.281 180.228 560.22H202.669Z" fill="#57AA6F"/>
<path d="M202.669 560.22C202.669 560.22 214.817 436.205 149.866 389.808C149.866 389.808 203.07 438.281 180.228 560.22H202.669Z" fill="black" fill-opacity="0.2"/>
<path d="M195.565 558.484C195.565 558.484 195.164 447.8 136.259 421.512C136.259 421.512 195.164 464.326 176.174 558.484H195.565Z" fill="#57AA6F"/>
<path d="M195.565 558.484C195.565 558.484 195.164 447.8 136.259 421.512C136.259 421.512 195.164 464.326 176.174 558.484H195.565Z" fill="black" fill-opacity="0.2"/>
<path d="M185.617 560.22C185.617 560.22 171.782 436.461 216.214 393.17C216.214 393.17 191.601 442.189 202.669 560.22H185.617Z" fill="#57AA6F"/>
<path d="M200.29 560.22C200.29 560.22 200.29 463.185 256.06 445.026C256.06 445.026 210.867 494.377 217.591 560.22H200.29Z" fill="#57AA6F"/>
<path d="M172.736 560.22C172.736 560.22 180.712 508.593 140.098 485.453C140.098 485.453 187.519 495.892 185.617 560.22H172.736Z" fill="#57AA6F"/>
<path d="M220.614 559.618H169.713C164.555 559.618 160.374 563.799 160.374 568.957V619.858C160.374 625.016 164.555 629.197 169.713 629.197H220.614C225.772 629.197 229.953 625.016 229.953 619.858V568.957C229.953 563.799 225.772 559.618 220.614 559.618Z" fill="white"/>
<path d="M220.614 559.618H169.713C164.555 559.618 160.374 563.799 160.374 568.957V619.858C160.374 625.016 164.555 629.197 169.713 629.197H220.614C225.772 629.197 229.953 625.016 229.953 619.858V568.957C229.953 563.799 225.772 559.618 220.614 559.618Z" stroke="#263648" stroke-width="3" stroke-linecap="round" stroke-linejoin="round"/>
<path d="M220.614 559.618H169.713C164.555 559.618 160.374 563.799 160.374 568.957V619.858C160.374 625.016 164.555 629.197 169.713 629.197H220.614C225.772 629.197 229.953 625.016 229.953 619.858V568.957C229.953 563.799 225.772 559.618 220.614 559.618Z" stroke="white" stroke-opacity="0.3" stroke-width="3" stroke-linecap="round" stroke-linejoin="round"/>
</g>
<defs>
<filter id="filter0_d_390_1839" x="162.675" y="224.232" width="267.383" height="110.737" filterUnits="userSpaceOnUse" color-interpolation-filters="sRGB">
<feFlood flood-opacity="0" result="BackgroundImageFix"/>
<feColorMatrix in="SourceAlpha" type="matrix" values="0 0 0 0 0 0 0 0 0 0 0 0 0 0 0 0 0 0 127 0" result="hardAlpha"/>
<feOffset dy="5"/>
<feGaussianBlur stdDeviation="3"/>
<feComposite in2="hardAlpha" operator="out"/>
<feColorMatrix type="matrix" values="0 0 0 0 0 0 0 0 0 0 0 0 0 0 0 0 0 0 0.15 0"/>
<feBlend mode="normal" in2="BackgroundImageFix" result="effect1_dropShadow_390_1839"/>
<feBlend mode="normal" in="SourceGraphic" in2="effect1_dropShadow_390_1839" result="shape"/>
</filter>
<clipPath id="clip0_390_1839">
<rect width="700" height="642.88" fill="white"/>
</clipPath>
</defs>
</svg>
