<svg width="884" height="696" viewBox="0 0 884 696" fill="none" xmlns="http://www.w3.org/2000/svg">
<g clip-path="url(#clip0_409_1664)">
<path d="M478.66 452.296L439.678 641.642H443.407L495.574 452.345" fill="#263648"/>
<path d="M478.66 452.296L439.678 641.642H443.407L495.574 452.345" fill="white" fill-opacity="0.2"/>
<path d="M616.932 447.827L656.688 641.642H653.077L600.958 452.262" fill="#263648"/>
<path d="M616.932 447.827L656.688 641.642H653.077L600.958 452.262" fill="white" fill-opacity="0.2"/>
<path d="M562.78 452.296L601.768 641.642H598.039L545.873 452.345" fill="#263648"/>
<path d="M562.78 452.296L601.768 641.642H598.039L545.873 452.345" fill="white" fill-opacity="0.2"/>
<path d="M659.504 359.335L635.983 429.205C633.593 436.299 629.035 442.464 622.953 446.829C616.871 451.194 609.572 453.54 602.086 453.534H468.899C461.413 453.54 454.114 451.194 448.032 446.829C441.95 442.464 437.392 436.299 435.002 429.205L415.632 371.704C414.85 369.378 414.632 366.899 414.997 364.472C415.362 362.045 416.299 359.739 417.731 357.746C419.164 355.753 421.049 354.129 423.233 353.009C425.417 351.889 427.836 351.304 430.291 351.304H445.206C448.604 351.304 451.888 350.076 454.453 347.846C457.019 345.617 458.692 342.536 459.166 339.17L467.854 277.492C468.855 270.368 472.396 263.847 477.826 259.128C483.255 254.409 490.207 251.811 497.4 251.813H617.374C621.644 251.811 625.863 252.725 629.749 254.494C633.634 256.263 637.094 258.846 639.896 262.067C642.697 265.288 644.775 269.073 645.988 273.166C647.201 277.26 647.521 281.565 646.927 285.793L639.47 339.011C639.076 341.849 639.825 344.728 641.553 347.014C643.281 349.3 645.846 350.806 648.684 351.2C649.175 351.269 649.669 351.304 650.165 351.304H653.762C654.557 351.301 655.344 351.455 656.08 351.757C656.815 352.058 657.484 352.502 658.048 353.062C658.612 353.622 659.06 354.288 659.367 355.021C659.674 355.755 659.833 356.541 659.836 357.336C659.836 358.016 659.724 358.692 659.504 359.335Z" fill="#263648"/>
<path d="M659.504 359.335L635.983 429.205C633.593 436.299 629.035 442.464 622.953 446.829C616.871 451.194 609.572 453.54 602.086 453.534H468.899C461.413 453.54 454.114 451.194 448.032 446.829C441.95 442.464 437.392 436.299 435.002 429.205L415.632 371.704C414.85 369.378 414.632 366.899 414.997 364.472C415.362 362.045 416.299 359.739 417.731 357.746C419.164 355.753 421.049 354.129 423.233 353.009C425.417 351.889 427.836 351.304 430.291 351.304H445.206C448.604 351.304 451.888 350.076 454.453 347.846C457.019 345.617 458.692 342.536 459.166 339.17L467.854 277.492C468.855 270.368 472.396 263.847 477.826 259.128C483.255 254.409 490.207 251.811 497.4 251.813H617.374C621.644 251.811 625.863 252.725 629.749 254.494C633.634 256.263 637.094 258.846 639.896 262.067C642.697 265.288 644.775 269.073 645.988 273.166C647.201 277.26 647.521 281.565 646.927 285.793L639.47 339.011C639.076 341.849 639.825 344.728 641.553 347.014C643.281 349.3 645.846 350.806 648.684 351.2C649.175 351.269 649.669 351.304 650.165 351.304H653.762C654.557 351.301 655.344 351.455 656.08 351.757C656.815 352.058 657.484 352.502 658.048 353.062C658.612 353.622 659.06 354.288 659.367 355.021C659.674 355.755 659.833 356.541 659.836 357.336C659.836 358.016 659.724 358.692 659.504 359.335Z" fill="white" fill-opacity="0.2"/>
<path d="M649.459 350.557H639.601C633.154 350.506 626.855 352.487 621.597 356.218C616.34 359.95 612.391 365.242 610.311 371.345L593.446 418.219C591.287 424.64 587.169 430.221 581.672 434.177C576.174 438.134 569.574 440.266 562.8 440.273H440.059" fill="#263648"/>
<path d="M649.459 350.557H639.601C633.154 350.506 626.855 352.487 621.597 356.218C616.34 359.95 612.391 365.242 610.311 371.345L593.446 418.219C591.287 424.64 587.169 430.221 581.672 434.177C576.174 438.134 569.574 440.266 562.8 440.273H440.059" fill="white" fill-opacity="0.15"/>
<path d="M649.459 350.557H639.601C633.154 350.506 626.855 352.487 621.597 356.218C616.34 359.95 612.391 365.242 610.311 371.345L593.446 418.219C591.287 424.64 587.169 430.221 581.672 434.177C576.174 438.134 569.574 440.266 562.8 440.273H440.059" stroke="white" stroke-width="3" stroke-miterlimit="10"/>
<path d="M799 323.723H99V338.727H799V323.723Z" fill="#263648"/>
<path d="M799 323.723H99V338.727H799V323.723Z" fill="white" fill-opacity="0.05"/>
<path d="M779.609 590.983H692.446V601.505H779.609V590.983Z" fill="#263648"/>
<path d="M779.609 590.983H692.446V601.505H779.609V590.983Z" fill="white" fill-opacity="0.05"/>
<path d="M767.483 339.226H704.441V353.172H767.483V339.226Z" fill="#263648"/>
<path d="M767.483 339.226H704.441V353.172H767.483V339.226Z" fill="white" fill-opacity="0.05"/>
<path d="M791.889 642.88C790.39 642.882 788.937 642.357 787.786 641.397C786.634 640.438 785.856 639.104 785.587 637.63L737.411 375.558C737.346 375.223 737.165 374.921 736.902 374.704C736.638 374.487 736.307 374.368 735.966 374.368C735.624 374.368 735.293 374.487 735.03 374.704C734.766 374.921 734.586 375.223 734.52 375.558L686.345 637.63C686.074 639.104 685.296 640.436 684.144 641.396C682.993 642.355 681.541 642.88 680.043 642.88C678.344 642.88 676.714 642.205 675.513 641.004C674.312 639.803 673.637 638.173 673.637 636.474C673.637 636.085 673.672 635.696 673.741 635.312L725.693 352.681H746.238L798.191 635.312C798.361 636.236 798.326 637.187 798.088 638.096C797.85 639.005 797.415 639.851 796.814 640.573C796.212 641.296 795.459 641.877 794.608 642.275C793.757 642.674 792.829 642.88 791.889 642.88Z" fill="#263648"/>
<path d="M791.889 642.88C790.39 642.882 788.937 642.357 787.786 641.397C786.634 640.438 785.856 639.104 785.587 637.63L737.411 375.558C737.346 375.223 737.165 374.921 736.902 374.704C736.638 374.487 736.307 374.368 735.966 374.368C735.624 374.368 735.293 374.487 735.03 374.704C734.766 374.921 734.586 375.223 734.52 375.558L686.345 637.63C686.074 639.104 685.296 640.436 684.144 641.396C682.993 642.355 681.541 642.88 680.043 642.88C678.344 642.88 676.714 642.205 675.513 641.004C674.312 639.803 673.637 638.173 673.637 636.474C673.637 636.085 673.672 635.696 673.741 635.312L725.693 352.681H746.238L798.191 635.312C798.361 636.236 798.326 637.187 798.088 638.096C797.85 639.005 797.415 639.851 796.814 640.573C796.212 641.296 795.459 641.877 794.608 642.275C793.757 642.674 792.829 642.88 791.889 642.88Z" fill="white" fill-opacity="0.05"/>
<path d="M205.685 590.983H118.522V601.505H205.685V590.983Z" fill="#263648"/>
<path d="M205.685 590.983H118.522V601.505H205.685V590.983Z" fill="white" fill-opacity="0.05"/>
<path d="M193.559 339.226H130.517V353.172H193.559V339.226Z" fill="#263648"/>
<path d="M193.559 339.226H130.517V353.172H193.559V339.226Z" fill="white" fill-opacity="0.05"/>
<path d="M217.965 642.88C216.466 642.88 215.014 642.355 213.863 641.396C212.711 640.436 211.933 639.104 211.662 637.63L163.487 375.565C163.421 375.229 163.241 374.928 162.977 374.711C162.714 374.494 162.383 374.375 162.041 374.375C161.7 374.375 161.369 374.494 161.105 374.711C160.842 374.928 160.661 375.229 160.596 375.565L112.42 637.63C112.151 639.104 111.373 640.438 110.221 641.397C109.07 642.357 107.617 642.882 106.118 642.88C104.419 642.88 102.79 642.205 101.589 641.004C100.387 639.803 99.7125 638.173 99.7125 636.474C99.7127 636.085 99.7475 635.696 99.8163 635.312L151.769 352.681H172.314L224.301 635.312C224.454 636.14 224.442 636.989 224.267 637.813C224.091 638.636 223.755 639.416 223.278 640.109C222.801 640.802 222.191 641.395 221.485 641.852C220.779 642.31 219.989 642.624 219.161 642.776C218.766 642.846 218.366 642.88 217.965 642.88Z" fill="#263648"/>
<path d="M217.965 642.88C216.466 642.88 215.014 642.355 213.863 641.396C212.711 640.436 211.933 639.104 211.662 637.63L163.487 375.565C163.421 375.229 163.241 374.928 162.977 374.711C162.714 374.494 162.383 374.375 162.041 374.375C161.7 374.375 161.369 374.494 161.105 374.711C160.842 374.928 160.661 375.229 160.596 375.565L112.42 637.63C112.151 639.104 111.373 640.438 110.221 641.397C109.07 642.357 107.617 642.882 106.118 642.88C104.419 642.88 102.79 642.205 101.589 641.004C100.387 639.803 99.7125 638.173 99.7125 636.474C99.7127 636.085 99.7475 635.696 99.8163 635.312L151.769 352.681H172.314L224.301 635.312C224.454 636.14 224.442 636.989 224.267 637.813C224.091 638.636 223.755 639.416 223.278 640.109C222.801 640.802 222.191 641.395 221.485 641.852C220.779 642.31 219.989 642.624 219.161 642.776C218.766 642.846 218.366 642.88 217.965 642.88Z" fill="white" fill-opacity="0.05"/>
<g filter="url(#filter0_d_409_1664)">
<path d="M387.864 225.232H275.375C273.333 225.232 271.374 226.043 269.93 227.487C268.487 228.931 267.675 230.889 267.675 232.931C267.671 233.845 267.833 234.752 268.153 235.608L296.515 312.679H428.236L398.912 232.938C398.082 230.677 396.577 228.725 394.601 227.347C392.625 225.968 390.273 225.23 387.864 225.232Z" fill="#313D4A"/>
<path d="M385.658 229.14H275.963C274.751 229.142 273.557 229.436 272.483 229.998C271.409 230.56 270.487 231.374 269.796 232.369C269.104 233.364 268.663 234.512 268.511 235.715C268.359 236.917 268.499 238.138 268.921 239.275L296.592 314.422H425.02L396.422 236.653C395.611 234.45 394.144 232.549 392.22 231.206C390.295 229.863 388.005 229.142 385.658 229.14Z" fill="#263648"/>
<path d="M385.658 229.14H275.963C274.751 229.142 273.557 229.436 272.483 229.998C271.409 230.56 270.487 231.374 269.796 232.369C269.104 233.364 268.663 234.512 268.511 235.715C268.359 236.917 268.499 238.138 268.921 239.275L296.592 314.422H425.02L396.422 236.653C395.611 234.45 394.144 232.549 392.22 231.206C390.295 229.863 388.005 229.142 385.658 229.14Z" fill="white" fill-opacity="0.3"/>
<path d="M296.246 312.658H512.031C513.478 312.657 514.911 312.942 516.249 313.495C517.586 314.048 518.801 314.858 519.825 315.881C520.849 316.904 521.662 318.118 522.216 319.455C522.771 320.791 523.057 322.224 523.058 323.671V323.969H307.314C305.866 323.974 304.431 323.695 303.091 323.145C301.751 322.596 300.533 321.789 299.505 320.769C298.477 319.748 297.66 318.536 297.101 317.2C296.542 315.864 296.251 314.432 296.246 312.984V312.658Z" fill="#152331"/>
<path d="M296.246 312.658H512.031C513.478 312.657 514.911 312.942 516.249 313.495C517.586 314.048 518.801 314.858 519.825 315.881C520.849 316.904 521.662 318.118 522.216 319.455C522.771 320.791 523.057 322.224 523.058 323.671V323.969H307.314C305.866 323.974 304.431 323.695 303.091 323.145C301.751 322.596 300.533 321.789 299.505 320.769C298.477 319.748 297.66 318.536 297.101 317.2C296.542 315.864 296.251 314.432 296.246 312.984V312.658Z" fill="white" fill-opacity="0.12"/>
<path d="M353.249 280.774C357.278 276.299 356.067 268.641 350.545 263.668C345.022 258.696 337.28 258.293 333.251 262.767C329.222 267.242 330.432 274.9 335.954 279.872C341.477 284.845 349.22 285.248 353.249 280.774Z" fill="#152331"/>
<path d="M353.249 280.774C357.278 276.299 356.067 268.641 350.545 263.668C345.022 258.696 337.28 258.293 333.251 262.767C329.222 267.242 330.432 274.9 335.954 279.872C341.477 284.845 349.22 285.248 353.249 280.774Z" fill="white" fill-opacity="0.74"/>
<path d="M456.087 316.705H446.894V320.005H456.087V316.705Z" fill="white"/>
<path d="M473.651 316.705H464.458V320.005H473.651V316.705Z" fill="#1A2128"/>
</g>
<path d="M693.504 291.998H689.942V284.797H657.49V317.566C657.49 318.375 657.648 319.176 657.957 319.923C658.266 320.671 658.72 321.35 659.292 321.922C659.864 322.494 660.543 322.947 661.29 323.256C662.037 323.565 662.838 323.724 663.647 323.723H683.785C684.592 323.724 685.392 323.566 686.139 323.257C686.885 322.949 687.564 322.497 688.135 321.927C688.707 321.356 689.161 320.679 689.471 319.933C689.781 319.187 689.941 318.388 689.942 317.58V306.401H693.504C695.414 306.401 697.246 305.642 698.596 304.292C699.947 302.941 700.706 301.109 700.706 299.2C700.706 297.29 699.947 295.458 698.596 294.107C697.246 292.757 695.414 291.998 693.504 291.998ZM696.029 301.877C695.678 302.229 695.261 302.509 694.802 302.7C694.342 302.891 693.85 302.99 693.352 302.99H689.942V295.381H693.324C694.075 295.379 694.809 295.6 695.433 296.016C696.057 296.432 696.544 297.025 696.831 297.718C697.118 298.411 697.192 299.174 697.044 299.909C696.897 300.645 696.534 301.32 696.002 301.849L696.029 301.877Z" fill="white" stroke="#39E58C" stroke-width="3" stroke-miterlimit="10"/>
<path d="M676.189 281.739C674.48 279.989 665.536 274.13 667.535 265.697C669.534 257.264 682.201 259.09 681.813 249.675C681.488 241.685 674.48 244.881 672.952 247.794C672.952 247.794 673.879 237.251 683.508 240.772C699.765 246.721 680.886 263.601 675.497 268.277C670.537 272.545 676.189 281.739 676.189 281.739Z" fill="#515E6D"/>
<path d="M687.555 259.125C687.555 259.125 685.48 266.236 677.033 269.737C677.033 269.737 690.004 269.737 687.555 259.125Z" fill="#515E6D"/>
<path d="M781.069 323.723C781.069 323.723 805.392 190.473 683.571 171.865" stroke="#39E58C" stroke-width="3" stroke-miterlimit="10"/>
<path d="M781.547 322.983H716.693C721.224 312.488 734.029 304.927 749.116 304.927C764.204 304.927 777.029 312.488 781.547 322.983Z" fill="#39E58C"/>
<path d="M781.547 322.983H773.384C769.088 313.028 756.933 305.847 742.613 305.847C741.61 305.847 740.614 305.882 739.625 305.958C742.741 305.267 745.924 304.921 749.116 304.927C764.211 304.927 777.029 312.489 781.547 322.983Z" fill="#2EB788"/>
<path d="M684.608 173.103C684.027 175.738 681.952 177.8 679.005 179.052C675.622 180.498 671.105 180.871 666.394 179.834C661.683 178.796 657.747 176.541 655.284 173.808C653.139 171.429 652.129 168.689 652.71 166.054C653.963 160.388 662.119 157.379 670.925 159.323C679.731 161.267 685.86 167.444 684.608 173.103Z" fill="#39E58C"/>
<path d="M684.608 173.103C684.062 175.579 682.194 177.544 679.53 178.817C680.789 177.83 681.674 176.444 682.042 174.888C683.211 169.609 677.497 163.854 669.278 162.034C661.53 160.326 654.322 162.726 652.551 167.43C652.556 166.965 652.609 166.501 652.71 166.047C653.962 160.381 662.119 157.372 670.925 159.316C679.731 161.26 685.86 167.444 684.608 173.103Z" fill="#39E58C"/>
<path d="M677.22 177.738C673.848 178.935 670.207 179.16 666.712 178.388C663.218 177.617 660.011 175.879 657.456 173.373C656.322 170.875 663.053 170.011 668.31 171.173C673.568 172.335 679.392 176.43 677.22 177.738Z" fill="#39E5AA"/>
<path d="M677.22 177.738C673.848 178.935 670.207 179.16 666.712 178.388C663.218 177.617 660.011 175.879 657.456 173.373C656.322 170.875 663.053 170.011 668.31 171.173C673.568 172.335 679.392 176.43 677.22 177.738Z" fill="black" fill-opacity="0.2"/>
<path d="M150.046 116.751H380.642V137.871L150.005 118.376C149.389 118.321 149.43 116.751 150.046 116.751Z" fill="#FFF4DE"/>
<path d="M355.766 12.3344H346.067C344.1 12.3344 342.505 13.9294 342.505 15.897V95.3473C342.505 97.3149 344.1 98.91 346.067 98.91H355.766C357.734 98.91 359.329 97.3149 359.329 95.3473V15.897C359.329 13.9294 357.734 12.3344 355.766 12.3344Z" fill="white" stroke="#39E58C" stroke-width="3" stroke-miterlimit="10"/>
<path d="M337.987 19.6603H326.407C324.485 19.6603 322.927 21.2182 322.927 23.1399V97.146C322.927 99.0677 324.485 100.626 326.407 100.626H337.987C339.909 100.626 341.467 99.0677 341.467 97.146V23.1399C341.467 21.2182 339.909 19.6603 337.987 19.6603Z" fill="#39E58C"/>
<path d="M319.683 0H316.556C314.764 0 313.312 1.45258 313.312 3.24442V97.3811C313.312 99.173 314.764 100.626 316.556 100.626H319.683C321.475 100.626 322.927 99.173 322.927 97.3811V3.24442C322.927 1.45258 321.475 0 319.683 0Z" fill="#D6EAF2"/>
<path d="M309.071 25.5195H300.742C298.778 25.5195 297.187 27.1115 297.187 29.0753V96.0391C297.187 98.0028 298.778 99.5948 300.742 99.5948H309.071C311.035 99.5948 312.627 98.0028 312.627 96.0391V29.0753C312.627 27.1115 311.035 25.5195 309.071 25.5195Z" fill="white" stroke="#39E58C" stroke-width="3" stroke-miterlimit="10"/>
<path d="M268.471 100.612H254.988L288.705 10.3005C288.832 9.94855 289.064 9.64418 289.37 9.4288C289.675 9.21341 290.04 9.09749 290.414 9.0968H299.974C300.218 9.09861 300.459 9.14835 300.683 9.2432C300.907 9.33804 301.11 9.47614 301.281 9.64958C301.452 9.82302 301.587 10.0284 301.679 10.254C301.77 10.4797 301.816 10.7211 301.815 10.9646C301.811 11.187 301.769 11.407 301.69 11.6149L268.471 100.612Z" fill="#39E58C"/>
<path d="M379.978 100.626H150.551V115.762H379.978V100.626Z" fill="white" stroke="#39E58C" stroke-width="3" stroke-miterlimit="10"/>
<path d="M173.732 67.0607H231.641V73.4181C231.637 80.6304 228.77 87.5461 223.67 92.6453C218.569 97.7445 211.653 100.61 204.44 100.612H200.94C193.724 100.612 186.804 97.7452 181.701 92.6428C176.599 87.5405 173.732 80.6201 173.732 73.4042V67.0607Z" fill="#152331"/>
<path d="M173.732 67.0607H231.641V73.4181C231.637 80.6304 228.77 87.5461 223.67 92.6453C218.569 97.7445 211.653 100.61 204.44 100.612H200.94C193.724 100.612 186.804 97.7452 181.701 92.6428C176.599 87.5405 173.732 80.6201 173.732 73.4042V67.0607Z" fill="white" fill-opacity="0.2"/>
<path d="M225.837 67.0607H182.912C182.912 67.0607 170.37 77.299 163.204 68.9077C158.015 62.827 182.843 62.5572 182.843 62.5572L183.59 62.2944C183.59 62.2944 172.944 39.9431 183.002 36.2075C189.955 33.6272 191.642 52.568 191.995 58.7248C195.662 57.1891 202.801 54.9823 203.41 60.8001C203.41 60.8001 204.205 36.8716 214.236 39.1614C222.572 41.0569 210.203 63.5465 210.203 63.5465L211.074 64.0791C211.074 64.0791 233.986 47.3451 239.596 51.2121C243.865 54.166 225.837 67.0607 225.837 67.0607Z" fill="#39E58C"/>
<path d="M225.837 67.0607H182.912C182.912 67.0607 170.37 77.299 163.204 68.9077C158.015 62.827 182.843 62.5572 182.843 62.5572L183.59 62.2944C183.59 62.2944 172.944 39.9431 183.002 36.2075C189.955 33.6272 191.642 52.568 191.995 58.7248C195.662 57.1891 202.801 54.9823 203.41 60.8001C203.41 60.8001 204.205 36.8716 214.236 39.1614C222.572 41.0569 210.203 63.5465 210.203 63.5465L211.074 64.0791C211.074 64.0791 233.986 47.3451 239.596 51.2121C243.865 54.166 225.837 67.0607 225.837 67.0607Z" fill="black" fill-opacity="0.2"/>
<path d="M189.505 67.0607C189.505 67.0607 189.955 46.4389 197.716 46.9993C205.478 47.5596 194.659 67.0607 194.659 67.0607H189.505Z" fill="#39E58C"/>
<path d="M189.505 67.0607C189.505 67.0607 181.715 47.6011 171.159 52.5818C160.852 57.4243 183.037 67.0607 183.037 67.0607H189.505Z" fill="#39E58C"/>
<path d="M205.52 67.0607C205.52 67.0607 212.541 49.5242 223.609 51.1914C234.678 52.8585 209.912 67.0607 209.912 67.0607H205.52Z" fill="#39E58C"/>
<path d="M216.927 67.0607C216.927 67.0607 238.621 56.1376 242.523 62.7233C246.424 69.309 216.927 67.0607 216.927 67.0607Z" fill="#39E58C"/>
<path d="M290.601 560.22C290.601 560.22 292.303 444.285 346.399 375.565C346.399 375.565 318.5 414.636 309.528 560.22H290.601Z" fill="url(#paint0_linear_409_1664)"/>
<path d="M301.669 560.22C301.669 560.22 313.817 436.205 248.866 389.808C248.866 389.808 302.07 438.281 279.228 560.22H301.669Z" fill="url(#paint1_linear_409_1664)"/>
<path d="M294.565 558.484C294.565 558.484 294.164 447.8 235.259 421.512C235.259 421.512 294.164 464.326 275.174 558.484H294.565Z" fill="url(#paint2_linear_409_1664)"/>
<path d="M284.617 560.22C284.617 560.22 270.782 436.461 315.214 393.17C315.214 393.17 290.601 442.189 301.669 560.22H284.617Z" fill="url(#paint3_linear_409_1664)"/>
<path d="M299.29 560.22C299.29 560.22 299.29 463.185 355.06 445.026C355.06 445.026 309.867 494.377 316.591 560.22H299.29Z" fill="url(#paint4_linear_409_1664)"/>
<path d="M271.736 560.22C271.736 560.22 279.712 508.593 239.098 485.453C239.098 485.453 286.519 495.892 284.617 560.22H271.736Z" fill="url(#paint5_linear_409_1664)"/>
<path d="M319.614 559.618H268.713C263.555 559.618 259.374 563.799 259.374 568.957V619.858C259.374 625.016 263.555 629.197 268.713 629.197H319.614C324.772 629.197 328.953 625.016 328.953 619.858V568.957C328.953 563.799 324.772 559.618 319.614 559.618Z" fill="white"/>
<path d="M319.614 559.618H268.713C263.555 559.618 259.374 563.799 259.374 568.957V619.858C259.374 625.016 263.555 629.197 268.713 629.197H319.614C324.772 629.197 328.953 625.016 328.953 619.858V568.957C328.953 563.799 324.772 559.618 319.614 559.618Z" stroke="#263648" stroke-width="3" stroke-linecap="round" stroke-linejoin="round"/>
<path d="M319.614 559.618H268.713C263.555 559.618 259.374 563.799 259.374 568.957V619.858C259.374 625.016 263.555 629.197 268.713 629.197H319.614C324.772 629.197 328.953 625.016 328.953 619.858V568.957C328.953 563.799 324.772 559.618 319.614 559.618Z" stroke="white" stroke-opacity="0.3" stroke-width="3" stroke-linecap="round" stroke-linejoin="round"/>
</g>
<g filter="url(#filter1_f_409_1664)">
<ellipse cx="442" cy="639" rx="430" ry="45" fill="#263648" fill-opacity="0.2"/>
</g>
<defs>
<filter id="filter0_d_409_1664" x="261.675" y="224.232" width="267.383" height="110.737" filterUnits="userSpaceOnUse" color-interpolation-filters="sRGB">
<feFlood flood-opacity="0" result="BackgroundImageFix"/>
<feColorMatrix in="SourceAlpha" type="matrix" values="0 0 0 0 0 0 0 0 0 0 0 0 0 0 0 0 0 0 127 0" result="hardAlpha"/>
<feOffset dy="5"/>
<feGaussianBlur stdDeviation="3"/>
<feComposite in2="hardAlpha" operator="out"/>
<feColorMatrix type="matrix" values="0 0 0 0 0 0 0 0 0 0 0 0 0 0 0 0 0 0 0.15 0"/>
<feBlend mode="normal" in2="BackgroundImageFix" result="effect1_dropShadow_409_1664"/>
<feBlend mode="normal" in="SourceGraphic" in2="effect1_dropShadow_409_1664" result="shape"/>
</filter>
<filter id="filter1_f_409_1664" x="0" y="582" width="884" height="114" filterUnits="userSpaceOnUse" color-interpolation-filters="sRGB">
<feFlood flood-opacity="0" result="BackgroundImageFix"/>
<feBlend mode="normal" in="SourceGraphic" in2="BackgroundImageFix" result="shape"/>
<feGaussianBlur stdDeviation="6" result="effect1_foregroundBlur_409_1664"/>
</filter>
<linearGradient id="paint0_linear_409_1664" x1="318.5" y1="375.565" x2="318.5" y2="560.22" gradientUnits="userSpaceOnUse">
<stop stop-color="#39E58C"/>
<stop offset="1" stop-color="#00FF7B" stop-opacity="0.4"/>
</linearGradient>
<linearGradient id="paint1_linear_409_1664" x1="275.718" y1="389.808" x2="275.718" y2="560.22" gradientUnits="userSpaceOnUse">
<stop stop-color="#39E58C"/>
<stop offset="1" stop-color="#00FF7B" stop-opacity="0.4"/>
</linearGradient>
<linearGradient id="paint2_linear_409_1664" x1="264.912" y1="421.512" x2="264.912" y2="558.484" gradientUnits="userSpaceOnUse">
<stop stop-color="#39E58C"/>
<stop offset="1" stop-color="#00FF7B" stop-opacity="0.4"/>
</linearGradient>
<linearGradient id="paint3_linear_409_1664" x1="298.897" y1="393.17" x2="298.897" y2="560.22" gradientUnits="userSpaceOnUse">
<stop stop-color="#24CF77"/>
<stop offset="1" stop-color="#1DB365"/>
</linearGradient>
<linearGradient id="paint4_linear_409_1664" x1="327.175" y1="445.026" x2="327.175" y2="560.22" gradientUnits="userSpaceOnUse">
<stop stop-color="#24CF77"/>
<stop offset="1" stop-color="#1DB365"/>
</linearGradient>
<linearGradient id="paint5_linear_409_1664" x1="261.886" y1="485.453" x2="261.886" y2="560.22" gradientUnits="userSpaceOnUse">
<stop stop-color="#24CF77"/>
<stop offset="1" stop-color="#1DB365"/>
</linearGradient>
<clipPath id="clip0_409_1664">
<rect width="700" height="642.88" fill="white" transform="translate(99)"/>
</clipPath>
</defs>
</svg>
