<svg width="166" height="25" viewBox="0 0 166 25" fill="none" xmlns="http://www.w3.org/2000/svg">
<path d="M14.2188 5.42188L4.90625 13.7656L14.2188 21.9219H8.35938L0.8125 15.2969C0.34375 14.9115 0.109375 14.401 0.109375 13.7656C0.109375 13.474 0.166667 13.1979 0.28125 12.9375C0.40625 12.6771 0.572917 12.4531 0.78125 12.2656L8.42188 5.42188H14.2188ZM32.7969 25H28.7344V13.7969C28.7344 13.2656 28.5938 12.8646 28.3125 12.5938C28.0312 12.3125 27.6146 12.1719 27.0625 12.1719H21.7812V25H17.7188V10.125C17.7188 9.84375 17.7708 9.58333 17.875 9.34375C17.9792 9.09375 18.125 8.88021 18.3125 8.70312C18.5 8.51562 18.7188 8.36979 18.9688 8.26562C19.2188 8.16146 19.4844 8.10938 19.7656 8.10938H27.0938C27.6562 8.10938 28.2604 8.20833 28.9062 8.40625C29.5521 8.60417 30.1667 8.92188 30.75 9.35938V8.10938H36.25C36.6354 8.10938 37.0417 8.15625 37.4688 8.25C37.8958 8.33333 38.3177 8.46875 38.7344 8.65625C39.1615 8.84375 39.5677 9.08854 39.9531 9.39062C40.3385 9.68229 40.6771 10.0417 40.9688 10.4688C41.2604 10.8854 41.4948 11.3698 41.6719 11.9219C41.849 12.474 41.9375 13.099 41.9375 13.7969V25H37.875V13.7969C37.875 13.2656 37.7396 12.8646 37.4688 12.5938C37.2083 12.3125 36.8021 12.1719 36.25 12.1719H32.5938C32.7292 12.6719 32.7969 13.2135 32.7969 13.7969V25ZM64.0625 19.2969C64.0625 19.9948 63.974 20.625 63.7969 21.1875C63.6198 21.7396 63.3854 22.2292 63.0938 22.6562C62.8021 23.0729 62.4635 23.4323 62.0781 23.7344C61.6927 24.026 61.2865 24.2656 60.8594 24.4531C60.4427 24.6406 60.0156 24.7812 59.5781 24.875C59.151 24.9583 58.7448 25 58.3594 25H51.0312C50.4688 25 49.8542 24.901 49.1875 24.7031C48.5208 24.5052 47.901 24.1823 47.3281 23.7344C46.7656 23.276 46.2917 22.6875 45.9062 21.9688C45.5312 21.2396 45.3438 20.349 45.3438 19.2969V13.7969C45.3438 12.7552 45.5312 11.875 45.9062 11.1562C46.2917 10.4271 46.7656 9.83854 47.3281 9.39062C47.901 8.93229 48.5208 8.60417 49.1875 8.40625C49.8542 8.20833 50.4688 8.10938 51.0312 8.10938H58.3594C59.401 8.10938 60.2865 8.29688 61.0156 8.67188C61.7448 9.04688 62.3333 9.52083 62.7812 10.0938C63.2292 10.6562 63.5521 11.2708 63.75 11.9375C63.9583 12.6042 64.0625 13.224 64.0625 13.7969V19.2969ZM60 13.8281C60 13.2656 59.8594 12.849 59.5781 12.5781C59.2969 12.3073 58.8906 12.1719 58.3594 12.1719H51.0625C50.5208 12.1719 50.1094 12.3125 49.8281 12.5938C49.5469 12.8646 49.4062 13.2656 49.4062 13.7969V19.2969C49.4062 19.8281 49.5469 20.2344 49.8281 20.5156C50.1094 20.7969 50.5208 20.9375 51.0625 20.9375H58.3594C58.9115 20.9375 59.3229 20.7969 59.5938 20.5156C59.8646 20.2344 60 19.8281 60 19.2969V13.8281ZM86.3125 25H82.25V13.7969C82.25 13.2656 82.1146 12.8646 81.8438 12.5938C81.5729 12.3125 81.1667 12.1719 80.625 12.1719H73.2969V8.10938H80.625C81.0104 8.10938 81.4167 8.15625 81.8438 8.25C82.2708 8.33333 82.6927 8.46875 83.1094 8.65625C83.5365 8.84375 83.9427 9.08854 84.3281 9.39062C84.7135 9.68229 85.0521 10.0417 85.3438 10.4688C85.6354 10.8854 85.8698 11.3698 86.0469 11.9219C86.224 12.474 86.3125 13.099 86.3125 13.7969V25ZM71.6562 25H67.5938V0.96875H71.6562V25ZM94.1562 4.64062H90.0938V0.96875H94.1562V4.64062ZM94.1562 25H90.0938V8.10938H94.1562V25ZM116.688 19.2969C116.688 19.6823 116.641 20.0885 116.547 20.5156C116.464 20.9427 116.328 21.3698 116.141 21.7969C115.953 22.2135 115.708 22.6146 115.406 23C115.115 23.3854 114.755 23.7292 114.328 24.0312C113.911 24.3229 113.427 24.5573 112.875 24.7344C112.323 24.9115 111.698 25 111 25H103.672C103.286 25 102.88 24.9583 102.453 24.875C102.026 24.7812 101.599 24.6406 101.172 24.4531C100.755 24.2656 100.354 24.026 99.9688 23.7344C99.5833 23.4323 99.2396 23.0729 98.9375 22.6562C98.6458 22.2292 98.4115 21.7396 98.2344 21.1875C98.0573 20.625 97.9688 19.9948 97.9688 19.2969V0.96875H102.031V19.2969C102.031 19.7969 102.188 20.1979 102.5 20.5C102.812 20.7917 103.203 20.9375 103.672 20.9375H111C111.51 20.9375 111.906 20.7865 112.188 20.4844C112.479 20.1823 112.625 19.7865 112.625 19.2969V13.7969C112.625 13.2865 112.474 12.8906 112.172 12.6094C111.87 12.3177 111.479 12.1719 111 12.1719H103.672V8.10938H111C111.385 8.10938 111.792 8.15625 112.219 8.25C112.646 8.33333 113.068 8.46875 113.484 8.65625C113.911 8.84375 114.318 9.08854 114.703 9.39062C115.089 9.68229 115.427 10.0417 115.719 10.4688C116.01 10.8854 116.245 11.3698 116.422 11.9219C116.599 12.474 116.688 13.099 116.688 13.7969V19.2969ZM148.484 2.59375L134.344 25H129.984L144.141 2.59375H148.484ZM157.125 5.42188L164.781 12.2656C164.99 12.4531 165.151 12.6771 165.266 12.9375C165.391 13.1979 165.453 13.474 165.453 13.7656C165.453 14.0677 165.391 14.3542 165.266 14.625C165.141 14.8854 164.969 15.1094 164.75 15.2969L157.188 21.9219H151.344L160.656 13.7656L151.344 5.42188H157.125Z" fill="#39E58C"/>
</svg>
