<svg width="199" height="35" viewBox="0 0 199 35" fill="none" xmlns="http://www.w3.org/2000/svg">
<path fill-rule="evenodd" clip-rule="evenodd" d="M55.9553 16.4091C55.1935 16.4091 54.5699 16.5642 54.0817 16.8735C53.5935 17.1827 53.3494 17.6508 53.3494 18.2767C53.3494 18.9026 53.5935 19.3817 54.0817 19.7139C54.5699 20.0443 55.608 20.4022 57.198 20.7849C58.787 21.1685 59.9845 21.7054 60.7914 22.3974C61.5975 23.0903 62 24.1108 62 25.4581C62 26.8062 61.4897 27.9002 60.469 28.7399C59.4493 29.5806 58.1108 30 56.4546 30C54.0292 30 51.8783 29.1676 50 27.5028L51.6415 25.5352C53.2093 26.8916 54.8352 27.5689 56.5209 27.5689C57.3638 27.5689 58.0325 27.389 58.5281 27.0274C59.0237 26.6667 59.2715 26.1877 59.2715 25.5911C59.2715 24.9937 59.0385 24.5302 58.5733 24.198C58.1072 23.8676 57.3048 23.5657 56.1663 23.2931C55.0277 23.0205 54.1627 22.7709 53.5714 22.5415C52.98 22.3139 52.4549 22.0147 51.9962 21.6467C51.0796 20.9538 50.6209 19.8938 50.6209 18.4639C50.6209 17.0359 51.1422 15.9337 52.185 15.1609C53.2278 14.3873 54.5174 14 56.0557 14C57.046 14 58.0289 14.1634 59.0053 14.4864C59.9817 14.8113 60.8246 15.2683 61.5339 15.8566L60.1374 17.8233C59.6787 17.4113 59.0569 17.0726 58.2739 16.8074C57.49 16.5422 56.7171 16.4091 55.9553 16.4091Z" fill="#FEFEFE"/>
<path fill-rule="evenodd" clip-rule="evenodd" d="M73.5538 22.0005C74.075 21.4272 74.3347 20.5888 74.3347 19.4823C74.3347 18.3757 74.0055 17.5934 73.3444 17.1361C72.6842 16.6779 71.6492 16.4488 70.2402 16.4488H67.5986V22.8579H70.6151C72.0524 22.8579 73.0326 22.5728 73.5538 22.0005ZM75.3926 15.3965C76.4633 16.3271 77 17.7616 77 19.699C77 21.6373 76.4523 23.0566 75.3587 23.9578C74.2652 24.8581 72.5882 25.3077 70.3279 25.3077H67.5986V30H65V14H70.2841C72.6184 14 74.3209 14.4649 75.3926 15.3965Z" fill="#FEFEFE"/>
<path fill-rule="evenodd" clip-rule="evenodd" d="M88.8356 21.4624C89.3645 20.989 89.629 20.2295 89.629 19.1847C89.629 18.14 89.3563 17.4223 88.8137 17.0335C88.2701 16.6446 87.3002 16.4498 85.9048 16.4498H82.6005V22.1716H85.8389C87.3084 22.1716 88.3068 21.9358 88.8356 21.4624ZM92.2945 19.1961C92.2945 21.837 91.1855 23.4996 88.9683 24.186L93 30H89.6949L86.0155 24.6214H82.6005V30H80V14H85.7291C88.0789 14 89.7608 14.4126 90.7746 15.2358C91.7885 16.06 92.2945 17.3804 92.2945 19.1961Z" fill="#FEFEFE"/>
<mask id="mask0" mask-type="alpha" maskUnits="userSpaceOnUse" x="0" y="0" width="199" height="35">
<path fill-rule="evenodd" clip-rule="evenodd" d="M0 35H199V0H0V35Z" fill="white"/>
</mask>
<g mask="url(#mask0)">
<path fill-rule="evenodd" clip-rule="evenodd" d="M96 30H99V14H96V30Z" fill="#FEFEFE"/>
<path fill-rule="evenodd" clip-rule="evenodd" d="M115.426 14H118V30H115.208L106.573 18.3263V30H104V14H106.573L115.426 25.9484V14Z" fill="#FEFEFE"/>
<path fill-rule="evenodd" clip-rule="evenodd" d="M132.447 22.3102H135V27.5918C133.572 29.1979 131.53 30 128.876 30C126.64 30 124.768 29.2493 123.261 27.746C121.754 26.2437 121 24.343 121 22.0441C121 19.746 121.767 17.8316 123.305 16.299C124.841 14.7672 126.697 14 128.876 14C131.055 14 132.865 14.6488 134.308 15.9456L132.945 17.9344C132.353 17.4195 131.758 17.0616 131.159 16.8615C130.56 16.6642 129.864 16.5642 129.072 16.5642C127.542 16.5642 126.258 17.0689 125.22 18.0785C124.181 19.0871 123.662 20.4132 123.662 22.056C123.662 23.6987 124.166 25.0166 125.177 26.0115C126.186 27.0054 127.408 27.5028 128.844 27.5028C130.279 27.5028 131.48 27.1862 132.447 26.5529V22.3102Z" fill="#FEFEFE"/>
<path fill-rule="evenodd" clip-rule="evenodd" d="M153.835 21.4624C154.365 20.989 154.629 20.2295 154.629 19.1847C154.629 18.14 154.357 17.4223 153.813 17.0335C153.27 16.6446 152.3 16.4498 150.905 16.4498H147.6V22.1716H150.839C152.308 22.1716 153.306 21.9358 153.835 21.4624ZM157.295 19.1961C157.295 21.837 156.185 23.4996 153.968 24.186L158 30H154.695L151.015 24.6214H147.6V30H145V14H150.729C153.079 14 154.761 14.4126 155.774 15.2358C156.788 16.06 157.295 17.3804 157.295 19.1961Z" fill="#FEFEFE"/>
<path fill-rule="evenodd" clip-rule="evenodd" d="M169.739 23.8656L167 17.273L164.261 23.8656H169.739ZM163.227 26.361L161.717 30H159L165.642 14H168.359L175 30H172.283L170.774 26.361H163.227Z" fill="#FEFEFE"/>
<path fill-rule="evenodd" clip-rule="evenodd" d="M177 30H180V14H177V30Z" fill="#FEFEFE"/>
<path fill-rule="evenodd" clip-rule="evenodd" d="M196.427 14H199V30H196.209L187.573 18.3263V30H185V14H187.573L196.427 25.9484V14Z" fill="#FEFEFE"/>
<path fill-rule="evenodd" clip-rule="evenodd" d="M0.20474 9.34115C0.522801 8.9683 0.904665 8.93499 1.36081 9.07932C2.67305 9.49473 3.99386 9.88423 5.30895 10.2885C5.77843 10.4319 5.95269 10.7021 5.99555 11.1471C6.03935 11.6162 5.75462 11.8271 5.38037 11.9585C5.2242 12.014 5.0166 12.0121 4.85472 11.9631C3.47963 11.5579 2.1112 11.1295 0.738016 10.7224C0.333297 10.6031 0.118083 10.3431 0 9.97397C0.0685641 9.76303 0.137128 9.55301 0.20474 9.34115Z" fill="#F6931D"/>
<path fill-rule="evenodd" clip-rule="evenodd" d="M7.00505 14.1177C6.99353 12.1377 7.60805 10.5973 8.85052 9.2608C9.95473 8.07522 11.3268 7.37392 12.9102 7.10663C14.9582 6.76017 16.8268 7.26775 18.4821 8.48687C19.1014 8.94322 19.1715 9.64265 18.6588 10.0282C18.2747 10.3179 17.7322 10.2527 17.28 9.90529C15.7552 8.7346 14.0441 8.5176 12.2582 9.15463C10.5001 9.78142 9.40166 11.0452 8.97246 12.8204C8.59799 14.3701 8.96862 15.7811 9.9845 17.0076C10.357 17.4584 10.8381 17.8393 11.3182 18.1886C11.9951 18.6784 12.1372 19.3145 11.6043 19.7951C11.2971 20.0727 10.8928 20.0382 10.6173 19.8696C10.0325 19.5073 9.46696 19.092 8.9763 18.6179C8.53174 18.1886 8.1227 17.6903 7.82793 17.1548C7.2787 16.1573 6.95512 15.0807 7.00505 14.1177Z" fill="#F6931D"/>
<path fill-rule="evenodd" clip-rule="evenodd" d="M18.364 3.27114C18.1617 3.93853 17.9649 4.60688 17.756 5.27237C17.6239 5.69212 17.2599 6 16.9124 6C16.4671 6 16.1658 5.74758 16.0402 5.33452C15.9736 5.11365 15.9958 4.83062 16.0623 4.60402C16.4329 3.31895 16.8256 2.04057 17.2174 0.763149C17.3689 0.265949 17.6618 0.0326481 18.0776 0.00300731C18.5156 -0.0266334 18.8353 0.162685 18.96 0.577655C19.0302 0.812869 18.9988 1.10545 18.936 1.34927C18.7678 1.99563 18.5572 2.63243 18.364 3.27114Z" fill="#F6931D"/>
<path fill-rule="evenodd" clip-rule="evenodd" d="M1.03168 19.6888C1.22634 19.5081 1.39405 19.2778 1.62065 19.1566C2.9064 18.4665 4.20413 17.8003 5.50186 17.128C5.997 16.8719 6.57499 17.0109 6.85949 17.4488C7.11904 17.8469 7.0232 18.4199 6.53705 18.7068C5.50186 19.3175 4.43273 19.8695 3.37059 20.4325C3.0202 20.6192 2.65085 20.7741 2.28449 20.928C1.89517 21.0909 1.56375 20.9648 1.28623 20.6768C1.03268 20.4137 0.946828 20.1108 1.03168 19.6888Z" fill="#F6931D"/>
<path fill-rule="evenodd" clip-rule="evenodd" d="M9.70793 6.93462C9.53414 6.75322 9.30572 6.60073 9.19151 6.38844C8.48839 5.08281 7.81903 3.75624 7.11988 2.44662C6.89643 2.02902 7.01561 1.65626 7.23012 1.32437C7.43669 1.00544 7.98389 0.903778 8.34042 1.10012C8.52812 1.20577 8.69694 1.40012 8.80122 1.59547C9.49441 2.89113 10.1707 4.19777 10.845 5.5044C11.0308 5.86519 11.0794 6.27283 10.8232 6.58877C10.5709 6.90272 10.2104 7.11302 9.70793 6.93462Z" fill="#F6931D"/>
<path fill-rule="evenodd" clip-rule="evenodd" d="M39.9005 20.2203C39.517 17.6703 38.0926 15.8532 35.8648 14.667C34.2846 13.8258 32.5742 13.691 30.8237 14.0525C30.6597 14.0862 30.5003 14.1317 30.4147 13.8622C29.8919 12.2217 28.9502 10.8734 27.5977 9.79644C26.2588 8.7322 24.7333 8.16231 23.0493 8.02666C21.7787 7.92379 20.5391 8.12043 19.3415 8.58563C17.9088 9.14552 16.7485 10.0468 15.7904 11.2385C14.8732 12.3774 14.3486 13.6892 14.1081 15.1112C14.007 15.7048 13.9852 16.3284 14.0417 16.9265C14.0699 17.2188 14.0052 17.2843 13.783 17.3226C11.3029 17.7541 9.32383 19.7797 9.04331 22.3624C8.82654 24.3561 9.41673 26.1032 10.9669 27.4842C12.1163 28.5075 13.4487 28.9873 14.9579 28.9945C15.8778 28.9991 15.7576 28.9991 16.6765 29C16.6693 28.4001 16.6538 27.8019 16.6246 27.2029C15.6528 27.2029 15.7202 27.2047 14.7475 27.2047C13.1136 27.2029 11.6946 26.1714 11.0871 24.7121C10.5087 23.3192 10.6335 21.9791 11.5243 20.7319C12.4678 19.411 14.0553 18.7054 15.7102 19.0268C15.8277 19.0495 15.9516 19.0304 16.1774 19.0304C15.5663 16.7654 15.5772 14.6051 16.9425 12.6396C17.876 11.2977 19.1557 10.4018 20.7377 9.98307C22.0738 9.62893 23.4045 9.69721 24.7087 10.1779C26.033 10.664 27.0694 11.5253 27.8855 12.6523C28.6943 13.7702 28.9584 15.0949 29.1861 16.4058C29.9202 16.1773 30.595 15.9351 31.2872 15.7594C32.9102 15.3461 34.3985 15.7485 35.7455 16.6571C36.7501 17.3362 37.4778 18.2675 37.8922 19.4283C38.2128 20.325 38.3358 21.2244 38.2019 22.1831C38.0115 23.5559 37.4241 24.7076 36.4304 25.6398C35.3839 26.623 34.1334 27.2002 32.6744 27.202C31.5067 27.2029 33.4594 27.2011 32.2918 27.202V28.9991C33.352 28.9982 32.2918 28.9991 32.351 28.9918C32.9357 28.9226 33.5423 28.949 34.1107 28.8152C35.8266 28.411 37.2802 27.547 38.374 26.1478C39.742 24.398 40.2311 22.4134 39.9005 20.2203Z" fill="#008FD4"/>
<path fill-rule="evenodd" clip-rule="evenodd" d="M17.9496 31C18.5441 31.6345 19.1703 32.2451 19.7215 32.9087C20.1506 33.4258 20.0621 34.0611 19.6052 34.5368C19.178 34.978 18.4787 35.1227 17.8967 34.8897C17.283 34.6444 16.8886 34.0691 17.0281 33.4584C17.2128 32.644 17.4792 31.8471 17.7111 31.0432C17.7899 31.0282 17.8698 31.0141 17.9496 31Z" fill="#008FD4"/>
<path fill-rule="evenodd" clip-rule="evenodd" d="M23.8905 29C24.5238 29.6714 25.1941 30.3184 25.7769 31.022C26.1534 31.4763 26.024 32.1259 25.6086 32.5471C25.1893 32.9726 24.5316 33.1129 23.9314 32.9054C23.3233 32.6962 22.9099 32.2157 23.0169 31.6211C23.1725 30.757 23.4449 29.9086 23.6677 29.0541C23.7417 29.0357 23.8166 29.0183 23.8905 29Z" fill="#008FD4"/>
<path fill-rule="evenodd" clip-rule="evenodd" d="M29.9272 31C30.5398 31.6491 31.1865 32.2754 31.7531 32.9571C32.14 33.4224 32.0462 34.0751 31.6525 34.5034C31.2305 34.9643 30.5456 35.1227 29.9263 34.901C29.3089 34.6811 28.9093 34.2123 29.0177 33.601C29.1692 32.7416 29.4427 31.9025 29.6645 31.0545C29.7524 31.0369 29.8393 31.0185 29.9272 31Z" fill="#008FD4"/>
</g>
</svg>
